<svg xmlns="http://www.w3.org/2000/svg" xmlns:xlink="http://www.w3.org/1999/xlink" width="2993" height="963" overflow="hidden"><defs><clipPath id="clip0"><rect width="2993" height="963" x="325" y="650"/></clipPath></defs><g clip-path="url(#clip0)" transform="translate(-325 -650)"><rect width="2973" height="637" x="342.5" y="822.5" fill="#E9E9E9" fill-opacity="1" stroke="#E9E9E9" stroke-linecap="butt" stroke-linejoin="miter" stroke-miterlimit="4" stroke-opacity="1" stroke-width="4.583"/><text fill="#000" fill-opacity="1" direction="ltr" font-family="Intel Clear,Intel Clear_MSFontService,sans-serif" font-size="55" font-stretch="normal" font-style="normal" font-variant="normal" font-weight="400" text-anchor="start" text-decoration="none" transform="matrix(1 0 0 1 360.556 894)" unicode-bidi="normal" writing-mode="lr-tb">FakeQ<tspan x="158.698" y="0" fill="#000" fill-opacity="1" direction="ltr" font-family="Intel Clear,Intel Clear_MSFontService,sans-serif" font-size="55" font-stretch="normal" font-style="normal" font-variant="normal" font-weight="400" text-anchor="start" text-decoration="none" unicode-bidi="normal" writing-mode="lr-tb">uantize</tspan></text><path fill="gray" fill-opacity="1" fill-rule="nonzero" d="M1611.08 1415.5 1611.08 1501.74 1601.92 1501.74 1601.92 1415.5ZM1606.5 1501.74 1620.25 1492.57 1606.5 1520.07 1592.75 1492.57Z"/><path fill="#B9D6E5" fill-opacity="1" fill-rule="evenodd" stroke="#0068B5" stroke-linecap="butt" stroke-linejoin="miter" stroke-miterlimit="4" stroke-opacity="1" stroke-width="4.583" d="M1361.5 1258C1361.5 1240.6 1375.6 1226.5 1393 1226.5L1819 1226.5C1836.4 1226.5 1850.5 1240.6 1850.5 1258L1850.5 1384C1850.5 1401.4 1836.4 1415.5 1819 1415.5L1393 1415.5C1375.6 1415.5 1361.5 1401.4 1361.5 1384Z"/><text fill="#000" fill-opacity="1" direction="ltr" font-family="Intel Clear,Intel Clear_MSFontService,sans-serif" font-size="37" font-stretch="normal" font-style="normal" font-variant="normal" font-weight="400" text-anchor="start" text-decoration="none" transform="matrix(1 0 0 1 1492.17 1288)" unicode-bidi="normal" writing-mode="lr-tb">FakeQuantize<tspan x="24.337" y="44" fill="#000" fill-opacity="1" direction="ltr" font-family="Intel Clear,Intel Clear_MSFontService,sans-serif" font-size="37" font-stretch="normal" font-style="normal" font-variant="normal" font-weight="400" text-anchor="start" text-decoration="none" unicode-bidi="normal" writing-mode="lr-tb">levels: 256</tspan><tspan x="-59.308" y="88" fill="#000" fill-opacity="1" direction="ltr" font-family="Intel Clear,Intel Clear_MSFontService,sans-serif" font-size="37" font-stretch="normal" font-style="normal" font-variant="normal" font-weight="400" text-anchor="start" text-decoration="none" unicode-bidi="normal" writing-mode="lr-tb">{f32} {1, 3, 299, 299}</tspan></text><path fill="#B9D6E5" fill-opacity="1" fill-rule="evenodd" stroke="#0068B5" stroke-linecap="butt" stroke-linejoin="miter" stroke-miterlimit="4" stroke-opacity="1" stroke-width="4.583" d="M1361.5 677.667C1361.5 664.872 1371.87 654.5 1384.67 654.5L1827.33 654.5C1840.13 654.5 1850.5 664.872 1850.5 677.667L1850.5 770.333C1850.5 783.128 1840.13 793.5 1827.33 793.5L1384.67 793.5C1371.87 793.5 1361.5 783.128 1361.5 770.333Z"/><text fill="#000" fill-opacity="1" direction="ltr" font-family="Intel Clear,Intel Clear_MSFontService,sans-serif" font-size="37" font-stretch="normal" font-style="normal" font-variant="normal" font-weight="400" text-anchor="start" text-decoration="none" transform="matrix(1 0 0 1 1519.94 714)" unicode-bidi="normal" writing-mode="lr-tb">Parameter<tspan x="-87.083" y="44" fill="#000" fill-opacity="1" direction="ltr" font-family="Intel Clear,Intel Clear_MSFontService,sans-serif" font-size="37" font-stretch="normal" font-style="normal" font-variant="normal" font-weight="400" text-anchor="start" text-decoration="none" unicode-bidi="normal" writing-mode="lr-tb">{f32} {1, 3, 299, 299}</tspan></text><path fill="gray" fill-opacity="1" fill-rule="nonzero" d="M1611.08 793.5 1611.08 1208.1 1601.92 1208.1 1601.92 793.5ZM1606.5 1208.1 1620.25 1198.93 1606.5 1226.43 1592.75 1198.93Z"/><path fill="gray" fill-opacity="1" fill-rule="nonzero" d="M2.2908-3.96978 282.333 157.631 277.751 165.571-2.2908 3.96978ZM280.042 161.601 278.975 145.11 295.921 170.764 265.23 168.929Z" transform="matrix(-1 0 0 1 1902.42 1055.5)"/><path fill="gray" fill-opacity="1" fill-rule="nonzero" d="M1.1183-4.44481 662.062 161.847 659.825 170.736-1.1183 4.44481ZM660.942 166.291 655.407 150.72 678.721 170.764 648.697 177.389Z" transform="matrix(-1 0 0 1 2285.22 1055.5)"/><path fill="gray" fill-opacity="1" fill-rule="nonzero" d="M0.72795-4.52516 1044.14 163.326 1042.69 172.376-0.72795 4.52516ZM1043.42 167.852 1036.55 152.821 1061.52 170.764 1032.19 179.972Z" transform="matrix(-1 0 0 1 2668.02 1055.5)"/><path fill="gray" fill-opacity="1" fill-rule="nonzero" d="M0.538146-4.55163 1426.66 164.06 1425.58 173.164-0.538146 4.55163ZM1426.11 168.612 1418.63 153.88 1444.32 170.764 1415.4 181.19Z" transform="matrix(-1 0 0 1 3050.82 1055.5)"/><path fill="#B9D6E5" fill-opacity="1" fill-rule="evenodd" stroke="#0068B5" stroke-linecap="butt" stroke-linejoin="miter" stroke-miterlimit="4" stroke-opacity="1" stroke-width="4.583" d="M1721.5 898.834C1721.5 881.529 1735.53 867.5 1752.83 867.5L2051.17 867.5C2068.47 867.5 2082.5 881.529 2082.5 898.834L2082.5 1024.17C2082.5 1041.47 2068.47 1055.5 2051.17 1055.5L1752.83 1055.5C1735.53 1055.5 1721.5 1041.47 1721.5 1024.17Z"/><text fill="#000" fill-opacity="1" direction="ltr" font-family="Intel Clear,Intel Clear_MSFontService,sans-serif" font-size="37" font-stretch="normal" font-style="normal" font-variant="normal" font-weight="400" text-anchor="start" text-decoration="none" transform="matrix(1 0 0 1 1826.75 929)" unicode-bidi="normal" writing-mode="lr-tb">Constant<tspan x="-54.427" y="44" fill="#000" fill-opacity="1" direction="ltr" font-family="Intel Clear,Intel Clear_MSFontService,sans-serif" font-size="37" font-stretch="normal" font-style="normal" font-variant="normal" font-weight="400" text-anchor="start" text-decoration="none" unicode-bidi="normal" writing-mode="lr-tb">{f32} {1, 1, 1, 1}</tspan><tspan x="-34.65" y="88" fill="#000" fill-opacity="1" direction="ltr" font-family="Intel Clear,Intel Clear_MSFontService,sans-serif" font-size="37" font-stretch="normal" font-style="normal" font-variant="normal" font-weight="400" text-anchor="start" text-decoration="none" unicode-bidi="normal" writing-mode="lr-tb">v</tspan><tspan x="-15.744" y="88" fill="#000" fill-opacity="1" direction="ltr" font-family="Intel Clear,Intel Clear_MSFontService,sans-serif" font-size="37" font-stretch="normal" font-style="normal" font-variant="normal" font-weight="400" text-anchor="start" text-decoration="none" unicode-bidi="normal" writing-mode="lr-tb">alue:</tspan><tspan x="71.34" y="88" fill="#000" fill-opacity="1" direction="ltr" font-family="Intel Clear,Intel Clear_MSFontService,sans-serif" font-size="37" font-stretch="normal" font-style="normal" font-variant="normal" font-weight="400" text-anchor="start" text-decoration="none" unicode-bidi="normal" writing-mode="lr-tb">[</tspan><tspan x="83.944" y="88" fill="#000" fill-opacity="1" direction="ltr" font-family="Intel Clear,Intel Clear_MSFontService,sans-serif" font-size="37" font-stretch="normal" font-style="normal" font-variant="normal" font-weight="400" text-anchor="start" text-decoration="none" unicode-bidi="normal" writing-mode="lr-tb">-</tspan><tspan x="98.267" y="88" fill="#000" fill-opacity="1" direction="ltr" font-family="Intel Clear,Intel Clear_MSFontService,sans-serif" font-size="37" font-stretch="normal" font-style="normal" font-variant="normal" font-weight="400" text-anchor="start" text-decoration="none" unicode-bidi="normal" writing-mode="lr-tb">12.8]</tspan></text><path fill="#B9D6E5" fill-opacity="1" fill-rule="evenodd" stroke="#0068B5" stroke-linecap="butt" stroke-linejoin="miter" stroke-miterlimit="4" stroke-opacity="1" stroke-width="4.583" d="M2104.5 898.834C2104.5 881.529 2118.53 867.5 2135.83 867.5L2434.17 867.5C2451.47 867.5 2465.5 881.529 2465.5 898.834L2465.5 1024.17C2465.5 1041.47 2451.47 1055.5 2434.17 1055.5L2135.83 1055.5C2118.53 1055.5 2104.5 1041.47 2104.5 1024.17Z"/><text fill="#000" fill-opacity="1" direction="ltr" font-family="Intel Clear,Intel Clear_MSFontService,sans-serif" font-size="37" font-stretch="normal" font-style="normal" font-variant="normal" font-weight="400" text-anchor="start" text-decoration="none" transform="matrix(1 0 0 1 2209.55 929)" unicode-bidi="normal" writing-mode="lr-tb">Constant<tspan x="-54.427" y="44" fill="#000" fill-opacity="1" direction="ltr" font-family="Intel Clear,Intel Clear_MSFontService,sans-serif" font-size="37" font-stretch="normal" font-style="normal" font-variant="normal" font-weight="400" text-anchor="start" text-decoration="none" unicode-bidi="normal" writing-mode="lr-tb">{f32} {1, 1, 1, 1}</tspan><tspan x="-27.5" y="88" fill="#000" fill-opacity="1" direction="ltr" font-family="Intel Clear,Intel Clear_MSFontService,sans-serif" font-size="37" font-stretch="normal" font-style="normal" font-variant="normal" font-weight="400" text-anchor="start" text-decoration="none" unicode-bidi="normal" writing-mode="lr-tb">v</tspan><tspan x="-8.594" y="88" fill="#000" fill-opacity="1" direction="ltr" font-family="Intel Clear,Intel Clear_MSFontService,sans-serif" font-size="37" font-stretch="normal" font-style="normal" font-variant="normal" font-weight="400" text-anchor="start" text-decoration="none" unicode-bidi="normal" writing-mode="lr-tb">alue:</tspan><tspan x="78.49" y="88" fill="#000" fill-opacity="1" direction="ltr" font-family="Intel Clear,Intel Clear_MSFontService,sans-serif" font-size="37" font-stretch="normal" font-style="normal" font-variant="normal" font-weight="400" text-anchor="start" text-decoration="none" unicode-bidi="normal" writing-mode="lr-tb">[12.7]</tspan></text><path fill="#B9D6E5" fill-opacity="1" fill-rule="evenodd" stroke="#0068B5" stroke-linecap="butt" stroke-linejoin="miter" stroke-miterlimit="4" stroke-opacity="1" stroke-width="4.583" d="M2487.5 898.834C2487.5 881.529 2501.53 867.5 2518.83 867.5L2817.17 867.5C2834.47 867.5 2848.5 881.529 2848.5 898.834L2848.5 1024.17C2848.5 1041.47 2834.47 1055.5 2817.17 1055.5L2518.83 1055.5C2501.53 1055.5 2487.5 1041.47 2487.5 1024.17Z"/><text fill="#000" fill-opacity="1" direction="ltr" font-family="Intel Clear,Intel Clear_MSFontService,sans-serif" font-size="37" font-stretch="normal" font-style="normal" font-variant="normal" font-weight="400" text-anchor="start" text-decoration="none" transform="matrix(1 0 0 1 2592.35 929)" unicode-bidi="normal" writing-mode="lr-tb">Constant<tspan x="-54.427" y="44" fill="#000" fill-opacity="1" direction="ltr" font-family="Intel Clear,Intel Clear_MSFontService,sans-serif" font-size="37" font-stretch="normal" font-style="normal" font-variant="normal" font-weight="400" text-anchor="start" text-decoration="none" unicode-bidi="normal" writing-mode="lr-tb">{f32} {1, 1, 1, 1}</tspan><tspan x="-34.65" y="88" fill="#000" fill-opacity="1" direction="ltr" font-family="Intel Clear,Intel Clear_MSFontService,sans-serif" font-size="37" font-stretch="normal" font-style="normal" font-variant="normal" font-weight="400" text-anchor="start" text-decoration="none" unicode-bidi="normal" writing-mode="lr-tb">v</tspan><tspan x="-15.744" y="88" fill="#000" fill-opacity="1" direction="ltr" font-family="Intel Clear,Intel Clear_MSFontService,sans-serif" font-size="37" font-stretch="normal" font-style="normal" font-variant="normal" font-weight="400" text-anchor="start" text-decoration="none" unicode-bidi="normal" writing-mode="lr-tb">alue:</tspan><tspan x="71.34" y="88" fill="#000" fill-opacity="1" direction="ltr" font-family="Intel Clear,Intel Clear_MSFontService,sans-serif" font-size="37" font-stretch="normal" font-style="normal" font-variant="normal" font-weight="400" text-anchor="start" text-decoration="none" unicode-bidi="normal" writing-mode="lr-tb">[</tspan><tspan x="83.944" y="88" fill="#000" fill-opacity="1" direction="ltr" font-family="Intel Clear,Intel Clear_MSFontService,sans-serif" font-size="37" font-stretch="normal" font-style="normal" font-variant="normal" font-weight="400" text-anchor="start" text-decoration="none" unicode-bidi="normal" writing-mode="lr-tb">-</tspan><tspan x="98.267" y="88" fill="#000" fill-opacity="1" direction="ltr" font-family="Intel Clear,Intel Clear_MSFontService,sans-serif" font-size="37" font-stretch="normal" font-style="normal" font-variant="normal" font-weight="400" text-anchor="start" text-decoration="none" unicode-bidi="normal" writing-mode="lr-tb">12.8]</tspan></text><path fill="#B9D6E5" fill-opacity="1" fill-rule="evenodd" stroke="#0068B5" stroke-linecap="butt" stroke-linejoin="miter" stroke-miterlimit="4" stroke-opacity="1" stroke-width="4.583" d="M2869.5 898.834C2869.5 881.529 2883.53 867.5 2900.83 867.5L3200.17 867.5C3217.47 867.5 3231.5 881.529 3231.5 898.834L3231.5 1024.17C3231.5 1041.47 3217.47 1055.5 3200.17 1055.5L2900.83 1055.5C2883.53 1055.5 2869.5 1041.47 2869.5 1024.17Z"/><text fill="#000" fill-opacity="1" direction="ltr" font-family="Intel Clear,Intel Clear_MSFontService,sans-serif" font-size="37" font-stretch="normal" font-style="normal" font-variant="normal" font-weight="400" text-anchor="start" text-decoration="none" transform="matrix(1 0 0 1 2975.15 929)" unicode-bidi="normal" writing-mode="lr-tb">Constant<tspan x="-54.427" y="44" fill="#000" fill-opacity="1" direction="ltr" font-family="Intel Clear,Intel Clear_MSFontService,sans-serif" font-size="37" font-stretch="normal" font-style="normal" font-variant="normal" font-weight="400" text-anchor="start" text-decoration="none" unicode-bidi="normal" writing-mode="lr-tb">{f32} {1, 1, 1, 1}</tspan><tspan x="-27.5" y="88" fill="#000" fill-opacity="1" direction="ltr" font-family="Intel Clear,Intel Clear_MSFontService,sans-serif" font-size="37" font-stretch="normal" font-style="normal" font-variant="normal" font-weight="400" text-anchor="start" text-decoration="none" unicode-bidi="normal" writing-mode="lr-tb">v</tspan><tspan x="-8.594" y="88" fill="#000" fill-opacity="1" direction="ltr" font-family="Intel Clear,Intel Clear_MSFontService,sans-serif" font-size="37" font-stretch="normal" font-style="normal" font-variant="normal" font-weight="400" text-anchor="start" text-decoration="none" unicode-bidi="normal" writing-mode="lr-tb">alue:</tspan><tspan x="78.49" y="88" fill="#000" fill-opacity="1" direction="ltr" font-family="Intel Clear,Intel Clear_MSFontService,sans-serif" font-size="37" font-stretch="normal" font-style="normal" font-variant="normal" font-weight="400" text-anchor="start" text-decoration="none" unicode-bidi="normal" writing-mode="lr-tb">[12.7]</tspan></text><path fill="#B9D6E5" fill-opacity="1" fill-rule="evenodd" stroke="#0068B5" stroke-linecap="butt" stroke-linejoin="miter" stroke-miterlimit="4" stroke-opacity="1" stroke-width="4.583" d="M1453.5 1534.5C1453.5 1526.22 1460.22 1519.5 1468.5 1519.5L1743.5 1519.5C1751.78 1519.5 1758.5 1526.22 1758.5 1534.5L1758.5 1594.5C1758.5 1602.78 1751.78 1609.5 1743.5 1609.5L1468.5 1609.5C1460.22 1609.5 1453.5 1602.78 1453.5 1594.5Z"/><text fill="#000" fill-opacity="1" direction="ltr" font-family="Intel Clear,Intel Clear_MSFontService,sans-serif" font-size="37" font-stretch="normal" font-style="normal" font-variant="normal" font-weight="400" text-anchor="start" text-decoration="none" transform="matrix(1 0 0 1 1554.03 1576)" unicode-bidi="normal" writing-mode="lr-tb">Result</text></g></svg>