<svg xmlns="http://www.w3.org/2000/svg" xmlns:xlink="http://www.w3.org/1999/xlink" width="2993" height="2365" overflow="hidden"><defs><clipPath id="clip0"><rect width="2993" height="2365" x="325" y="73"/></clipPath><linearGradient id="fill1" x1="1606" x2="1606" y1="834.5" y2="645.5" gradientUnits="userSpaceOnUse" spreadMethod="reflect"><stop offset="0" stop-color="#D7F3A2" stop-opacity="1"/><stop offset=".79" stop-color="#B9D6E5" stop-opacity="1"/><stop offset="1" stop-color="#B9D6E5" stop-opacity="1"/></linearGradient></defs><g clip-path="url(#clip0)" transform="translate(-325 -73)"><rect width="2973" height="437" x="342.5" y="1854.5" fill="#E9E9E9" fill-opacity="1" stroke="#E9E9E9" stroke-linecap="butt" stroke-linejoin="miter" stroke-miterlimit="4" stroke-opacity="1" stroke-width="4.583"/><text fill="#000" fill-opacity="1" direction="ltr" font-family="Intel Clear,Intel Clear_MSFontService,sans-serif" font-size="55" font-stretch="normal" font-style="normal" font-variant="normal" font-weight="400" text-anchor="start" text-decoration="none" transform="matrix(1 0 0 1 360.556 1926)" unicode-bidi="normal" writing-mode="lr-tb">Dequantization</text><rect width="2973" height="903" x="342.5" y="916.5" fill="#E9E9E9" fill-opacity="1" stroke="#E9E9E9" stroke-linecap="butt" stroke-linejoin="miter" stroke-miterlimit="4" stroke-opacity="1" stroke-width="4.583"/><text fill="#000" fill-opacity="1" direction="ltr" font-family="Intel Clear,Intel Clear_MSFontService,sans-serif" font-size="55" font-stretch="normal" font-style="normal" font-variant="normal" font-weight="400" text-anchor="start" text-decoration="none" transform="matrix(1 0 0 1 360.556 989)" unicode-bidi="normal" writing-mode="lr-tb">INT8 Convolution with zero point</text><rect width="2973" height="637" x="342.5" y="241.5" fill="#E9E9E9" fill-opacity="1" stroke="#E9E9E9" stroke-linecap="butt" stroke-linejoin="miter" stroke-miterlimit="4" stroke-opacity="1" stroke-width="4.583"/><text fill="#000" fill-opacity="1" direction="ltr" font-family="Intel Clear,Intel Clear_MSFontService,sans-serif" font-size="55" font-stretch="normal" font-style="normal" font-variant="normal" font-weight="400" text-anchor="start" text-decoration="none" transform="matrix(1 0 0 1 360.556 313)" unicode-bidi="normal" writing-mode="lr-tb">Q<tspan x="41.823" y="0" fill="#000" fill-opacity="1" direction="ltr" font-family="Intel Clear,Intel Clear_MSFontService,sans-serif" font-size="55" font-stretch="normal" font-style="normal" font-variant="normal" font-weight="400" text-anchor="start" text-decoration="none" unicode-bidi="normal" writing-mode="lr-tb">uantization</tspan></text><path fill="gray" fill-opacity="1" fill-rule="nonzero" d="M1611.08 834.5 1611.08 1147.01 1601.92 1147.01 1601.92 834.5ZM1606.5 1147.01 1620.25 1137.84 1606.5 1165.34 1592.75 1137.84Z"/><path fill="url(#fill1)" fill-rule="evenodd" stroke="#0068B5" stroke-linecap="butt" stroke-linejoin="miter" stroke-miterlimit="4" stroke-opacity="1" stroke-width="4.583" d="M1361.5 677.001C1361.5 659.603 1375.6 645.5 1393 645.5L1819 645.5C1836.4 645.5 1850.5 659.603 1850.5 677.001L1850.5 803C1850.5 820.397 1836.4 834.5 1819 834.5L1393 834.5C1375.6 834.5 1361.5 820.397 1361.5 803Z"/><text fill="#000" fill-opacity="1" direction="ltr" font-family="Intel Clear,Intel Clear_MSFontService,sans-serif" font-size="37" font-stretch="normal" font-style="normal" font-variant="normal" font-weight="400" text-anchor="start" text-decoration="none" transform="matrix(1 0 0 1 1492.17 708)" unicode-bidi="normal" writing-mode="lr-tb">FakeQuantize<tspan x="24.337" y="44" fill="#000" fill-opacity="1" direction="ltr" font-family="Intel Clear,Intel Clear_MSFontService,sans-serif" font-size="37" font-stretch="normal" font-style="normal" font-variant="normal" font-weight="400" text-anchor="start" text-decoration="none" unicode-bidi="normal" writing-mode="lr-tb">levels: 256</tspan><tspan x="-53.006" y="88" fill="#000" fill-opacity="1" direction="ltr" font-family="Intel Clear,Intel Clear_MSFontService,sans-serif" font-size="37" font-stretch="normal" font-style="normal" font-variant="normal" font-weight="400" text-anchor="start" text-decoration="none" unicode-bidi="normal" writing-mode="lr-tb">{u8} {1, 3, 299, 299}</tspan></text><path fill="#B9D6E5" fill-opacity="1" fill-rule="evenodd" stroke="#0068B5" stroke-linecap="butt" stroke-linejoin="miter" stroke-miterlimit="4" stroke-opacity="1" stroke-width="4.583" d="M1361.5 102.667C1361.5 89.8721 1371.87 79.4999 1384.67 79.4999L1827.33 79.4999C1840.13 79.4999 1850.5 89.8721 1850.5 102.667L1850.5 195.333C1850.5 208.127 1840.13 218.5 1827.33 218.5L1384.67 218.5C1371.87 218.5 1361.5 208.127 1361.5 195.333Z"/><text fill="#000" fill-opacity="1" direction="ltr" font-family="Intel Clear,Intel Clear_MSFontService,sans-serif" font-size="37" font-stretch="normal" font-style="normal" font-variant="normal" font-weight="400" text-anchor="start" text-decoration="none" transform="matrix(1 0 0 1 1519.94 138)" unicode-bidi="normal" writing-mode="lr-tb">Parameter<tspan x="-87.083" y="44" fill="#000" fill-opacity="1" direction="ltr" font-family="Intel Clear,Intel Clear_MSFontService,sans-serif" font-size="37" font-stretch="normal" font-style="normal" font-variant="normal" font-weight="400" text-anchor="start" text-decoration="none" unicode-bidi="normal" writing-mode="lr-tb">{f32} {1, 3, 299, 299}</tspan></text><path fill="gray" fill-opacity="1" fill-rule="nonzero" d="M1611.08 218.5 1611.08 627.474 1601.92 627.474 1601.92 218.5ZM1606.5 627.474 1620.25 618.308 1606.5 645.808 1592.75 618.308Z"/><path fill="gray" fill-opacity="1" fill-rule="nonzero" d="M2.2908-3.96978 282.333 157.631 277.751 165.571-2.2908 3.96978ZM280.042 161.601 278.975 145.11 295.921 170.764 265.23 168.929Z" transform="matrix(-1 0 0 1 1902.42 475.5)"/><path fill="gray" fill-opacity="1" fill-rule="nonzero" d="M1.1183-4.44481 662.062 161.847 659.825 170.736-1.1183 4.44481ZM660.942 166.291 655.407 150.72 678.721 170.764 648.697 177.389Z" transform="matrix(-1 0 0 1 2285.22 475.5)"/><path fill="gray" fill-opacity="1" fill-rule="nonzero" d="M0.72795-4.52516 1044.14 163.326 1042.69 172.376-0.72795 4.52516ZM1043.42 167.852 1036.55 152.821 1061.52 170.764 1032.19 179.972Z" transform="matrix(-1 0 0 1 2668.02 475.5)"/><path fill="gray" fill-opacity="1" fill-rule="nonzero" d="M0.538146-4.55163 1426.66 164.06 1425.58 173.164-0.538146 4.55163ZM1426.11 168.612 1418.63 153.88 1444.32 170.764 1415.4 181.19Z" transform="matrix(-1 0 0 1 3050.82 475.5)"/><path fill="#D7F3A2" fill-opacity="1" fill-rule="evenodd" stroke="#515A3D" stroke-linecap="butt" stroke-linejoin="miter" stroke-miterlimit="4" stroke-opacity="1" stroke-width="4.583" d="M1361.5 1188.67C1361.5 1175.87 1371.87 1165.5 1384.67 1165.5L1827.33 1165.5C1840.13 1165.5 1850.5 1175.87 1850.5 1188.67L1850.5 1281.33C1850.5 1294.13 1840.13 1304.5 1827.33 1304.5L1384.67 1304.5C1371.87 1304.5 1361.5 1294.13 1361.5 1281.33Z"/><text fill="#000" fill-opacity="1" direction="ltr" font-family="Intel Clear,Intel Clear_MSFontService,sans-serif" font-size="37" font-stretch="normal" font-style="normal" font-variant="normal" font-weight="400" text-anchor="start" text-decoration="none" transform="matrix(1 0 0 1 1535.13 1224)" unicode-bidi="normal" writing-mode="lr-tb">Subtract<tspan x="-102.277" y="44" fill="#000" fill-opacity="1" direction="ltr" font-family="Intel Clear,Intel Clear_MSFontService,sans-serif" font-size="37" font-stretch="normal" font-style="normal" font-variant="normal" font-weight="400" text-anchor="start" text-decoration="none" unicode-bidi="normal" writing-mode="lr-tb">{f32} {1, 3, 299, 299}</tspan></text><path fill="#B9D6E5" fill-opacity="1" fill-rule="evenodd" stroke="#0068B5" stroke-linecap="butt" stroke-linejoin="miter" stroke-miterlimit="4" stroke-opacity="1" stroke-width="4.583" d="M1361.5 2132.67C1361.5 2119.87 1371.87 2109.5 1384.67 2109.5L1827.33 2109.5C1840.13 2109.5 1850.5 2119.87 1850.5 2132.67L1850.5 2225.33C1850.5 2238.13 1840.13 2248.5 1827.33 2248.5L1384.67 2248.5C1371.87 2248.5 1361.5 2238.13 1361.5 2225.33Z"/><text fill="#000" fill-opacity="1" direction="ltr" font-family="Intel Clear,Intel Clear_MSFontService,sans-serif" font-size="37" font-stretch="normal" font-style="normal" font-variant="normal" font-weight="400" text-anchor="start" text-decoration="none" transform="matrix(1 0 0 1 1538 2168)" unicode-bidi="normal" writing-mode="lr-tb">Multiply<tspan x="-105.142" y="44" fill="#000" fill-opacity="1" direction="ltr" font-family="Intel Clear,Intel Clear_MSFontService,sans-serif" font-size="37" font-stretch="normal" font-style="normal" font-variant="normal" font-weight="400" text-anchor="start" text-decoration="none" unicode-bidi="normal" writing-mode="lr-tb">{f32} {1, 6, 299, 299}</tspan></text><path fill="#D7F3A2" fill-opacity="1" fill-rule="evenodd" stroke="#515A3D" stroke-linecap="butt" stroke-linejoin="miter" stroke-miterlimit="4" stroke-opacity="1" stroke-width="4.583" d="M1361.5 1632.67C1361.5 1619.87 1371.87 1609.5 1384.67 1609.5L1827.33 1609.5C1840.13 1609.5 1850.5 1619.87 1850.5 1632.67L1850.5 1725.33C1850.5 1738.13 1840.13 1748.5 1827.33 1748.5L1384.67 1748.5C1371.87 1748.5 1361.5 1738.13 1361.5 1725.33Z"/><text fill="#000" fill-opacity="1" direction="ltr" font-family="Intel Clear,Intel Clear_MSFontService,sans-serif" font-size="37" font-stretch="normal" font-style="normal" font-variant="normal" font-weight="400" text-anchor="start" text-decoration="none" transform="matrix(1 0 0 1 1503.62 1668)" unicode-bidi="normal" writing-mode="lr-tb">Convolution<tspan x="-70.767" y="44" fill="#000" fill-opacity="1" direction="ltr" font-family="Intel Clear,Intel Clear_MSFontService,sans-serif" font-size="37" font-stretch="normal" font-style="normal" font-variant="normal" font-weight="400" text-anchor="start" text-decoration="none" unicode-bidi="normal" writing-mode="lr-tb">{f32} {1, 6, 299, 299}</tspan></text><path fill="gray" fill-opacity="1" fill-rule="nonzero" d="M1611.08 1304.5 1611.08 1590.8 1601.92 1590.8 1601.92 1304.5ZM1606.5 1590.8 1620.25 1581.64 1606.5 1609.14 1592.75 1581.64Z"/><path fill="gray" fill-opacity="1" fill-rule="nonzero" d="M1611.08 1748.5 1611.08 2091.14 1601.92 2091.14 1601.92 1748.5ZM1606.5 2091.14 1620.25 2081.97 1606.5 2109.47 1592.75 2081.97Z"/><path fill="gray" fill-opacity="1" fill-rule="nonzero" d="M0.67297-4.53366 539.542 75.4553 538.196 84.5226-0.67297 4.53366ZM538.868 79.9889 531.82 65.042 557.003 82.6808 527.782 92.244Z" transform="matrix(-1 0 0 1 2163.5 1526.5)"/><path fill="gray" fill-opacity="1" fill-rule="nonzero" d="M0.932594-4.48745 349.579 67.9692 347.714 76.9441-0.932594 4.48745ZM348.646 72.4565 342.469 57.129 366.596 76.1869 336.873 84.0537Z" transform="matrix(-1 0 0 1 1973.1 1088.5)"/><path fill="gray" fill-opacity="1" fill-rule="nonzero" d="M0.524738-4.5532 576.717 61.8507 575.668 70.9571-0.524738 4.5532ZM576.195 66.4042 568.663 51.6951 594.408 68.5032 565.514 79.0143Z" transform="matrix(-1 0 0 1 2200.91 2040.5)"/><path fill="#B9D6E5" fill-opacity="1" fill-rule="evenodd" stroke="#0068B5" stroke-linecap="butt" stroke-linejoin="miter" stroke-miterlimit="4" stroke-opacity="1" stroke-width="4.583" d="M1721.5 318.001C1721.5 300.603 1735.6 286.5 1753 286.5L2051 286.5C2068.4 286.5 2082.5 300.603 2082.5 318.001L2082.5 443.999C2082.5 461.397 2068.4 475.5 2051 475.5L1753 475.5C1735.6 475.5 1721.5 461.397 1721.5 443.999Z"/><text fill="#000" fill-opacity="1" direction="ltr" font-family="Intel Clear,Intel Clear_MSFontService,sans-serif" font-size="37" font-stretch="normal" font-style="normal" font-variant="normal" font-weight="400" text-anchor="start" text-decoration="none" transform="matrix(1 0 0 1 1826.75 348)" unicode-bidi="normal" writing-mode="lr-tb">Constant<tspan x="-54.427" y="44" fill="#000" fill-opacity="1" direction="ltr" font-family="Intel Clear,Intel Clear_MSFontService,sans-serif" font-size="37" font-stretch="normal" font-style="normal" font-variant="normal" font-weight="400" text-anchor="start" text-decoration="none" unicode-bidi="normal" writing-mode="lr-tb">{f32} {1, 1, 1, 1}</tspan><tspan x="-34.65" y="88" fill="#000" fill-opacity="1" direction="ltr" font-family="Intel Clear,Intel Clear_MSFontService,sans-serif" font-size="37" font-stretch="normal" font-style="normal" font-variant="normal" font-weight="400" text-anchor="start" text-decoration="none" unicode-bidi="normal" writing-mode="lr-tb">v</tspan><tspan x="-15.744" y="88" fill="#000" fill-opacity="1" direction="ltr" font-family="Intel Clear,Intel Clear_MSFontService,sans-serif" font-size="37" font-stretch="normal" font-style="normal" font-variant="normal" font-weight="400" text-anchor="start" text-decoration="none" unicode-bidi="normal" writing-mode="lr-tb">alue:</tspan><tspan x="71.34" y="88" fill="#000" fill-opacity="1" direction="ltr" font-family="Intel Clear,Intel Clear_MSFontService,sans-serif" font-size="37" font-stretch="normal" font-style="normal" font-variant="normal" font-weight="400" text-anchor="start" text-decoration="none" unicode-bidi="normal" writing-mode="lr-tb">[</tspan><tspan x="83.944" y="88" fill="#000" fill-opacity="1" direction="ltr" font-family="Intel Clear,Intel Clear_MSFontService,sans-serif" font-size="37" font-stretch="normal" font-style="normal" font-variant="normal" font-weight="400" text-anchor="start" text-decoration="none" unicode-bidi="normal" writing-mode="lr-tb">-</tspan><tspan x="98.267" y="88" fill="#000" fill-opacity="1" direction="ltr" font-family="Intel Clear,Intel Clear_MSFontService,sans-serif" font-size="37" font-stretch="normal" font-style="normal" font-variant="normal" font-weight="400" text-anchor="start" text-decoration="none" unicode-bidi="normal" writing-mode="lr-tb">12.8]</tspan></text><path fill="#B9D6E5" fill-opacity="1" fill-rule="evenodd" stroke="#0068B5" stroke-linecap="butt" stroke-linejoin="miter" stroke-miterlimit="4" stroke-opacity="1" stroke-width="4.583" d="M2104.5 318.001C2104.5 300.603 2118.6 286.5 2136 286.5L2434 286.5C2451.4 286.5 2465.5 300.603 2465.5 318.001L2465.5 443.999C2465.5 461.397 2451.4 475.5 2434 475.5L2136 475.5C2118.6 475.5 2104.5 461.397 2104.5 443.999Z"/><text fill="#000" fill-opacity="1" direction="ltr" font-family="Intel Clear,Intel Clear_MSFontService,sans-serif" font-size="37" font-stretch="normal" font-style="normal" font-variant="normal" font-weight="400" text-anchor="start" text-decoration="none" transform="matrix(1 0 0 1 2209.55 348)" unicode-bidi="normal" writing-mode="lr-tb">Constant<tspan x="-54.427" y="44" fill="#000" fill-opacity="1" direction="ltr" font-family="Intel Clear,Intel Clear_MSFontService,sans-serif" font-size="37" font-stretch="normal" font-style="normal" font-variant="normal" font-weight="400" text-anchor="start" text-decoration="none" unicode-bidi="normal" writing-mode="lr-tb">{f32} {1, 1, 1, 1}</tspan><tspan x="-27.5" y="88" fill="#000" fill-opacity="1" direction="ltr" font-family="Intel Clear,Intel Clear_MSFontService,sans-serif" font-size="37" font-stretch="normal" font-style="normal" font-variant="normal" font-weight="400" text-anchor="start" text-decoration="none" unicode-bidi="normal" writing-mode="lr-tb">v</tspan><tspan x="-8.594" y="88" fill="#000" fill-opacity="1" direction="ltr" font-family="Intel Clear,Intel Clear_MSFontService,sans-serif" font-size="37" font-stretch="normal" font-style="normal" font-variant="normal" font-weight="400" text-anchor="start" text-decoration="none" unicode-bidi="normal" writing-mode="lr-tb">alue:</tspan><tspan x="78.49" y="88" fill="#000" fill-opacity="1" direction="ltr" font-family="Intel Clear,Intel Clear_MSFontService,sans-serif" font-size="37" font-stretch="normal" font-style="normal" font-variant="normal" font-weight="400" text-anchor="start" text-decoration="none" unicode-bidi="normal" writing-mode="lr-tb">[12.7]</tspan></text><path fill="#B9D6E5" fill-opacity="1" fill-rule="evenodd" stroke="#0068B5" stroke-linecap="butt" stroke-linejoin="miter" stroke-miterlimit="4" stroke-opacity="1" stroke-width="4.583" d="M2487.5 318.001C2487.5 300.603 2501.6 286.5 2519 286.5L2817 286.5C2834.4 286.5 2848.5 300.603 2848.5 318.001L2848.5 444C2848.5 461.397 2834.4 475.5 2817 475.5L2519 475.5C2501.6 475.5 2487.5 461.397 2487.5 444Z"/><text fill="#000" fill-opacity="1" direction="ltr" font-family="Intel Clear,Intel Clear_MSFontService,sans-serif" font-size="37" font-stretch="normal" font-style="normal" font-variant="normal" font-weight="400" text-anchor="start" text-decoration="none" transform="matrix(1 0 0 1 2592.35 348)" unicode-bidi="normal" writing-mode="lr-tb">Constant<tspan x="-54.427" y="44" fill="#000" fill-opacity="1" direction="ltr" font-family="Intel Clear,Intel Clear_MSFontService,sans-serif" font-size="37" font-stretch="normal" font-style="normal" font-variant="normal" font-weight="400" text-anchor="start" text-decoration="none" unicode-bidi="normal" writing-mode="lr-tb">{f32} {1, 1, 1, 1}</tspan><tspan x="-1.719" y="88" fill="#000" fill-opacity="1" direction="ltr" font-family="Intel Clear,Intel Clear_MSFontService,sans-serif" font-size="37" font-stretch="normal" font-style="normal" font-variant="normal" font-weight="400" text-anchor="start" text-decoration="none" unicode-bidi="normal" writing-mode="lr-tb">v</tspan><tspan x="17.188" y="88" fill="#000" fill-opacity="1" direction="ltr" font-family="Intel Clear,Intel Clear_MSFontService,sans-serif" font-size="37" font-stretch="normal" font-style="normal" font-variant="normal" font-weight="400" text-anchor="start" text-decoration="none" unicode-bidi="normal" writing-mode="lr-tb">alue:</tspan><tspan x="104.271" y="88" fill="#000" fill-opacity="1" direction="ltr" font-family="Intel Clear,Intel Clear_MSFontService,sans-serif" font-size="37" font-stretch="normal" font-style="normal" font-variant="normal" font-weight="400" text-anchor="start" text-decoration="none" unicode-bidi="normal" writing-mode="lr-tb">[0]</tspan></text><path fill="#B9D6E5" fill-opacity="1" fill-rule="evenodd" stroke="#0068B5" stroke-linecap="butt" stroke-linejoin="miter" stroke-miterlimit="4" stroke-opacity="1" stroke-width="4.583" d="M2869.5 318C2869.5 300.603 2883.6 286.5 2901 286.5L3200 286.5C3217.4 286.5 3231.5 300.603 3231.5 318L3231.5 443.999C3231.5 461.397 3217.4 475.5 3200 475.5L2901 475.5C2883.6 475.5 2869.5 461.397 2869.5 443.999Z"/><text fill="#000" fill-opacity="1" direction="ltr" font-family="Intel Clear,Intel Clear_MSFontService,sans-serif" font-size="37" font-stretch="normal" font-style="normal" font-variant="normal" font-weight="400" text-anchor="start" text-decoration="none" transform="matrix(1 0 0 1 2975.15 348)" unicode-bidi="normal" writing-mode="lr-tb">Constant<tspan x="-54.427" y="44" fill="#000" fill-opacity="1" direction="ltr" font-family="Intel Clear,Intel Clear_MSFontService,sans-serif" font-size="37" font-stretch="normal" font-style="normal" font-variant="normal" font-weight="400" text-anchor="start" text-decoration="none" unicode-bidi="normal" writing-mode="lr-tb">{f32} {1, 1, 1, 1}</tspan><tspan x="-23.489" y="88" fill="#000" fill-opacity="1" direction="ltr" font-family="Intel Clear,Intel Clear_MSFontService,sans-serif" font-size="37" font-stretch="normal" font-style="normal" font-variant="normal" font-weight="400" text-anchor="start" text-decoration="none" unicode-bidi="normal" writing-mode="lr-tb">v</tspan><tspan x="-4.583" y="88" fill="#000" fill-opacity="1" direction="ltr" font-family="Intel Clear,Intel Clear_MSFontService,sans-serif" font-size="37" font-stretch="normal" font-style="normal" font-variant="normal" font-weight="400" text-anchor="start" text-decoration="none" unicode-bidi="normal" writing-mode="lr-tb">alue:</tspan><tspan x="82.5" y="88" fill="#000" fill-opacity="1" direction="ltr" font-family="Intel Clear,Intel Clear_MSFontService,sans-serif" font-size="37" font-stretch="normal" font-style="normal" font-variant="normal" font-weight="400" text-anchor="start" text-decoration="none" unicode-bidi="normal" writing-mode="lr-tb">[255]</tspan></text><path fill="#D7F3A2" fill-opacity="1" fill-rule="evenodd" stroke="#515A3D" stroke-linecap="butt" stroke-linejoin="miter" stroke-miterlimit="4" stroke-opacity="1" stroke-width="4.583" d="M1918.5 1189.67C1918.5 1176.87 1928.87 1166.5 1941.67 1166.5L2384.33 1166.5C2397.13 1166.5 2407.5 1176.87 2407.5 1189.67L2407.5 1282.33C2407.5 1295.13 2397.13 1305.5 2384.33 1305.5L1941.67 1305.5C1928.87 1305.5 1918.5 1295.13 1918.5 1282.33Z"/><text fill="#000" fill-opacity="1" direction="ltr" font-family="Intel Clear,Intel Clear_MSFontService,sans-serif" font-size="37" font-stretch="normal" font-style="normal" font-variant="normal" font-weight="400" text-anchor="start" text-decoration="none" transform="matrix(1 0 0 1 2087.82 1225)" unicode-bidi="normal" writing-mode="lr-tb">Constant<tspan x="-42.098" y="44" fill="#000" fill-opacity="1" direction="ltr" font-family="Intel Clear,Intel Clear_MSFontService,sans-serif" font-size="37" font-stretch="normal" font-style="normal" font-variant="normal" font-weight="400" text-anchor="start" text-decoration="none" unicode-bidi="normal" writing-mode="lr-tb">{i8} {6, 3, 1, 1}</tspan></text><path fill="#D7F3A2" fill-opacity="1" fill-rule="evenodd" stroke="#515A3D" stroke-linecap="butt" stroke-linejoin="miter" stroke-miterlimit="4" stroke-opacity="1" stroke-width="4.583" d="M1728.5 972.667C1728.5 959.872 1738.87 949.5 1751.67 949.5L2193.33 949.5C2206.13 949.5 2216.5 959.872 2216.5 972.667L2216.5 1065.33C2216.5 1078.13 2206.13 1088.5 2193.33 1088.5L1751.67 1088.5C1738.87 1088.5 1728.5 1078.13 1728.5 1065.33Z"/><text fill="#000" fill-opacity="1" direction="ltr" font-family="Intel Clear,Intel Clear_MSFontService,sans-serif" font-size="37" font-stretch="normal" font-style="normal" font-variant="normal" font-weight="400" text-anchor="start" text-decoration="none" transform="matrix(1 0 0 1 1897.42 1009)" unicode-bidi="normal" writing-mode="lr-tb">Constant<tspan x="21.198" y="44" fill="#000" fill-opacity="1" direction="ltr" font-family="Intel Clear,Intel Clear_MSFontService,sans-serif" font-size="37" font-stretch="normal" font-style="normal" font-variant="normal" font-weight="400" text-anchor="start" text-decoration="none" unicode-bidi="normal" writing-mode="lr-tb">{u8} {}</tspan></text><path fill="#B9D6E5" fill-opacity="1" fill-rule="evenodd" stroke="#0068B5" stroke-linecap="butt" stroke-linejoin="miter" stroke-miterlimit="4" stroke-opacity="1" stroke-width="4.583" d="M1956.5 1924.67C1956.5 1911.87 1966.87 1901.5 1979.67 1901.5L2421.33 1901.5C2434.13 1901.5 2444.5 1911.87 2444.5 1924.67L2444.5 2017.33C2444.5 2030.13 2434.13 2040.5 2421.33 2040.5L1979.67 2040.5C1966.87 2040.5 1956.5 2030.13 1956.5 2017.33Z"/><text fill="#000" fill-opacity="1" direction="ltr" font-family="Intel Clear,Intel Clear_MSFontService,sans-serif" font-size="37" font-stretch="normal" font-style="normal" font-variant="normal" font-weight="400" text-anchor="start" text-decoration="none" transform="matrix(1 0 0 1 2125.23 1961)" unicode-bidi="normal" writing-mode="lr-tb">Constant<tspan x="-54.427" y="44" fill="#000" fill-opacity="1" direction="ltr" font-family="Intel Clear,Intel Clear_MSFontService,sans-serif" font-size="37" font-stretch="normal" font-style="normal" font-variant="normal" font-weight="400" text-anchor="start" text-decoration="none" unicode-bidi="normal" writing-mode="lr-tb">{f32} {1, 6, 1, 1}</tspan></text><path fill="#B9D6E5" fill-opacity="1" fill-rule="evenodd" stroke="#0068B5" stroke-linecap="butt" stroke-linejoin="miter" stroke-miterlimit="4" stroke-opacity="1" stroke-width="4.583" d="M1453.5 2356.5C1453.5 2348.22 1460.22 2341.5 1468.5 2341.5L1743.5 2341.5C1751.78 2341.5 1758.5 2348.22 1758.5 2356.5L1758.5 2416.5C1758.5 2424.78 1751.78 2431.5 1743.5 2431.5L1468.5 2431.5C1460.22 2431.5 1453.5 2424.78 1453.5 2416.5Z"/><text fill="#000" fill-opacity="1" direction="ltr" font-family="Intel Clear,Intel Clear_MSFontService,sans-serif" font-size="37" font-stretch="normal" font-style="normal" font-variant="normal" font-weight="400" text-anchor="start" text-decoration="none" transform="matrix(1 0 0 1 1554.03 2398)" unicode-bidi="normal" writing-mode="lr-tb">Result</text><path fill="gray" fill-opacity="1" fill-rule="nonzero" d="M1611.08 2248.5 1611.08 2323.19 1601.92 2323.19 1601.92 2248.5ZM1606.5 2323.19 1620.25 2314.03 1606.5 2341.53 1592.75 2314.03Z"/><path fill="#D7F3A2" fill-opacity="1" fill-rule="evenodd" stroke="#515A3D" stroke-linecap="butt" stroke-linejoin="miter" stroke-miterlimit="4" stroke-opacity="1" stroke-width="4.583" d="M1918.5 1410.67C1918.5 1397.87 1928.87 1387.5 1941.67 1387.5L2384.33 1387.5C2397.13 1387.5 2407.5 1397.87 2407.5 1410.67L2407.5 1503.33C2407.5 1516.13 2397.13 1526.5 2384.33 1526.5L1941.67 1526.5C1928.87 1526.5 1918.5 1516.13 1918.5 1503.33Z"/><text fill="#000" fill-opacity="1" direction="ltr" font-family="Intel Clear,Intel Clear_MSFontService,sans-serif" font-size="37" font-stretch="normal" font-style="normal" font-variant="normal" font-weight="400" text-anchor="start" text-decoration="none" transform="matrix(1 0 0 1 2092.14 1446)" unicode-bidi="normal" writing-mode="lr-tb">Subtract<tspan x="-102.277" y="44" fill="#000" fill-opacity="1" direction="ltr" font-family="Intel Clear,Intel Clear_MSFontService,sans-serif" font-size="37" font-stretch="normal" font-style="normal" font-variant="normal" font-weight="400" text-anchor="start" text-decoration="none" unicode-bidi="normal" writing-mode="lr-tb">{f32} {1, 3, 299, 299}</tspan></text><path fill="gray" fill-opacity="1" fill-rule="nonzero" d="M0.708498-4.52824 511.033 75.3183 509.616 84.3747-0.708498 4.52824ZM510.324 79.8465 503.393 64.8447 528.437 82.6804 499.142 92.0142Z" transform="matrix(-1 0 0 1 2691.94 1304.5)"/><path fill="#D7F3A2" fill-opacity="1" fill-rule="evenodd" stroke="#515A3D" stroke-linecap="butt" stroke-linejoin="miter" stroke-miterlimit="4" stroke-opacity="1" stroke-width="4.583" d="M2447.5 1188.67C2447.5 1175.87 2457.87 1165.5 2470.67 1165.5L2912.33 1165.5C2925.13 1165.5 2935.5 1175.87 2935.5 1188.67L2935.5 1281.33C2935.5 1294.13 2925.13 1304.5 2912.33 1304.5L2470.67 1304.5C2457.87 1304.5 2447.5 1294.13 2447.5 1281.33Z"/><text fill="#000" fill-opacity="1" direction="ltr" font-family="Intel Clear,Intel Clear_MSFontService,sans-serif" font-size="37" font-stretch="normal" font-style="normal" font-variant="normal" font-weight="400" text-anchor="start" text-decoration="none" transform="matrix(1 0 0 1 2616.26 1224)" unicode-bidi="normal" writing-mode="lr-tb">Constant<tspan x="-42.098" y="44" fill="#000" fill-opacity="1" direction="ltr" font-family="Intel Clear,Intel Clear_MSFontService,sans-serif" font-size="37" font-stretch="normal" font-style="normal" font-variant="normal" font-weight="400" text-anchor="start" text-decoration="none" unicode-bidi="normal" writing-mode="lr-tb">{i8} {6, 1, 1, 1}</tspan></text><path fill="gray" fill-opacity="1" fill-rule="nonzero" d="M2168.08 1305.5 2168.08 1368.87 2158.92 1368.87 2158.92 1305.5ZM2163.5 1368.87 2177.25 1359.71 2163.5 1387.21 2149.75 1359.71Z"/><path fill="#E9E9E9" fill-opacity="1" fill-rule="evenodd" stroke="#AEAEAE" stroke-linecap="butt" stroke-linejoin="miter" stroke-miterlimit="4" stroke-opacity="1" stroke-width="4.583" d="M2229.5 1006.5 2376.5 859.5 2376.5 933 2646.5 933 2646.5 1080 2376.5 1080 2376.5 1153.5Z"/><text fill="gray" fill-opacity="1" direction="ltr" font-family="Intel Clear,Intel Clear_MSFontService,sans-serif" font-size="46" font-stretch="normal" font-style="normal" font-variant="normal" font-weight="400" text-anchor="start" text-decoration="none" transform="matrix(1 0 0 1 2365.74 993)" unicode-bidi="normal" writing-mode="lr-tb">Z<tspan x="27.5" y="0" fill="gray" fill-opacity="1" direction="ltr" font-family="Intel Clear,Intel Clear_MSFontService,sans-serif" font-size="46" font-stretch="normal" font-style="normal" font-variant="normal" font-weight="400" text-anchor="start" text-decoration="none" unicode-bidi="normal" writing-mode="lr-tb">ero point </tspan><tspan x="-36.369" y="55" fill="gray" fill-opacity="1" direction="ltr" font-family="Intel Clear,Intel Clear_MSFontService,sans-serif" font-size="46" font-stretch="normal" font-style="normal" font-variant="normal" font-weight="400" text-anchor="start" text-decoration="none" unicode-bidi="normal" writing-mode="lr-tb">on activations</tspan></text><path fill="#E9E9E9" fill-opacity="1" fill-rule="evenodd" stroke="#AEAEAE" stroke-linecap="butt" stroke-linejoin="miter" stroke-miterlimit="4" stroke-opacity="1" stroke-width="4.583" d="M2943.5 1242.5 3090.5 1095.5 3090.5 1169 3302.5 1169 3302.5 1316 3090.5 1316 3090.5 1389.5Z"/><text fill="gray" fill-opacity="1" direction="ltr" font-family="Intel Clear,Intel Clear_MSFontService,sans-serif" font-size="46" font-stretch="normal" font-style="normal" font-variant="normal" font-weight="400" text-anchor="start" text-decoration="none" transform="matrix(1 0 0 1 3051.19 1229)" unicode-bidi="normal" writing-mode="lr-tb">Z<tspan x="27.5" y="0" fill="gray" fill-opacity="1" direction="ltr" font-family="Intel Clear,Intel Clear_MSFontService,sans-serif" font-size="46" font-stretch="normal" font-style="normal" font-variant="normal" font-weight="400" text-anchor="start" text-decoration="none" unicode-bidi="normal" writing-mode="lr-tb">ero point </tspan><tspan x="-4.01" y="55" fill="gray" fill-opacity="1" direction="ltr" font-family="Intel Clear,Intel Clear_MSFontService,sans-serif" font-size="46" font-stretch="normal" font-style="normal" font-variant="normal" font-weight="400" text-anchor="start" text-decoration="none" unicode-bidi="normal" writing-mode="lr-tb">on weights</tspan></text></g></svg>