<svg xmlns="http://www.w3.org/2000/svg" xmlns:xlink="http://www.w3.org/1999/xlink" width="100%" height="100%" version="1.1" viewBox="0 0 1300 421" xml:space="preserve" style="fill-rule:evenodd;clip-rule:evenodd;stroke-linejoin:round;stroke-miterlimit:1.5"><g transform="matrix(1,0,0,1,-3564.04,-690.017)"><g id="Artboard3" transform="matrix(1,0,0,1,-7.53286e-05,0)"><rect width="1650" height="1199.97" x="3400" y="0" style="fill:none"/><g transform="matrix(1.42952,0,0,0.459279,-1469.37,725.179)"><rect width="255.921" height="255.921" x="3521.05" y="45.956" style="fill:#0068b5"/></g><g><g><path d="M429.331,200.779L456.331,209.779L429.331,218.779L429.331,200.779Z" transform="matrix(2.19776,0,0,13.773,3285.16,-3926.44) matrix(0.455009,-0,-0,0.0726059,126.894,335.181)" style="fill:#0068b5"/><path d="M376.331,209.779L434.731,209.779" transform="matrix(2.19776,0,0,13.773,3285.16,-3926.44) matrix(0.455009,-0,-0,0.0726059,126.894,335.181)" style="fill:none;stroke:#0068b5;stroke-width:5px"/></g></g><g><g><path d="M896.153,200.779L923.153,209.779L896.153,218.779L896.153,200.779Z" transform="matrix(2.19776,0,0,13.773,3751.98,-3926.44) matrix(0.455009,-0,-0,0.0726059,-85.5147,335.181)" style="fill:#0068b5"/><path d="M843.153,209.779L901.553,209.779" transform="matrix(2.19776,0,0,13.773,3751.98,-3926.44) matrix(0.455009,-0,-0,0.0726059,-85.5147,335.181)" style="fill:none;stroke:#0068b5;stroke-width:5px"/></g></g><g><text x="341.467" y="329.069" transform="matrix(1.84815,0,0,1.84815,2999.08,208.138)" style="font-family:'ArialMT','Arial',sans-serif;font-size:17px;fill:#fff">T<tspan x="351.221 356.882" y="329.069 329.069">ra</tspan>in your model</text></g><g transform="matrix(1.42952,0,0,0.459279,-1002.55,668.91)"><rect width="255.921" height="255.921" x="3521.05" y="45.956" style="fill:#0068b5"/></g><g><text x="352.102" y="320.291" transform="matrix(1.84815,0,0,1.84815,3466.11,151.868)" style="font-family:'ArialMT','Arial',sans-serif;font-size:17px;fill:#fff">Convert to the</text><text x="334.16" y="337.847" transform="matrix(1.84815,0,0,1.84815,3466.11,151.868)" style="font-family:'ArialMT','Arial',sans-serif;font-size:17px;fill:#fff">OpenVINO format*</text></g><g transform="matrix(1.42952,0,0,0.459279,-1002.55,819.919)"><rect width="255.921" height="255.921" x="3521.05" y="45.956" style="fill:#0068b5"/></g><g><text x="352.098" y="329.069" transform="matrix(1.84815,0,0,1.84815,3466.11,302.878)" style="font-family:'ArialMT','Arial',sans-serif;font-size:17px;fill:#fff">Run Inference</text></g><g transform="matrix(1.42952,0,0,0.459279,-535.727,819.919)"><rect width="255.921" height="255.921" x="3521.05" y="45.956" style="fill:#0068b5"/></g><g><text x="317.135" y="329.069" transform="matrix(1.84815,0,0,1.84815,3932.93,302.878)" style="font-family:'ArialMT','Arial',sans-serif;font-size:17px;fill:#fff">Deploy your application</text></g><g transform="matrix(1.42952,0,0,0.459279,-1002.55,971.372)"><rect width="255.921" height="255.921" x="3521.05" y="45.956" style="fill:#0068b5"/></g><g><text x="333.994" y="329.069" transform="matrix(1.84815,0,0,1.84815,3466.11,454.331)" style="font-family:'ArialMT','Arial',sans-serif;font-size:17px;fill:#fff">T<tspan x="343.747 353.202" y="329.069 329.069">un</tspan>e and Optimize</text></g><g><text x="392.743" y="319.908" transform="matrix(1.84815,0,0,1.84815,2999.29,319.809)" style="font-family:'ArialMT','Arial',sans-serif;font-size:17px;fill:#0068b5">OR</text></g><g transform="matrix(1.42952,0,0,0.459279,-1469.37,914.659)"><rect width="255.921" height="255.921" x="3521.05" y="45.956" style="fill:#0068b5"/></g><g><text x="381.78" y="320.291" transform="matrix(1.84815,0,0,1.84815,2999.08,397.618)" style="font-family:'ArialMT','Arial',sans-serif;font-size:17px;fill:#fff">Pick a</text><text x="338.309" y="337.847" transform="matrix(1.84815,0,0,1.84815,2999.08,397.618)" style="font-family:'ArialMT','Arial',sans-serif;font-size:17px;fill:#fff">pre-trained model</text></g></g></g></svg>