<svg xmlns="http://www.w3.org/2000/svg" xmlns:xlink="http://www.w3.org/1999/xlink" width="2993" height="2260" overflow="hidden"><defs><clipPath id="clip0"><rect width="2993" height="2260" x="325" y="100"/></clipPath><linearGradient id="fill1" x1="2264" x2="2264" y1="1566.5" y2="1427.5" gradientUnits="userSpaceOnUse" spreadMethod="reflect"><stop offset="0" stop-color="#B9D6E5" stop-opacity="1"/><stop offset=".6" stop-color="#D7F3A2" stop-opacity="1"/><stop offset="1" stop-color="#D7F3A2" stop-opacity="1"/></linearGradient><linearGradient id="fill2" x1="2797.5" x2="2797.5" y1="1567.5" y2="1428.5" gradientUnits="userSpaceOnUse" spreadMethod="reflect"><stop offset="0" stop-color="#B9D6E5" stop-opacity="1"/><stop offset=".6" stop-color="#D7F3A2" stop-opacity="1"/><stop offset="1" stop-color="#D7F3A2" stop-opacity="1"/></linearGradient><linearGradient id="fill3" x1="1608.5" x2="1608.5" y1="321.5" y2="181.5" gradientUnits="userSpaceOnUse" spreadMethod="reflect"><stop offset="0" stop-color="#B9D6E5" stop-opacity="1"/><stop offset=".6" stop-color="#D7F3A2" stop-opacity="1"/><stop offset="1" stop-color="#D7F3A2" stop-opacity="1"/></linearGradient></defs><g clip-path="url(#clip0)" transform="translate(-325 -100)"><rect width="2973" height="1437" x="342.5" y="824.5" fill="#E9E9E9" fill-opacity="1" stroke="#E9E9E9" stroke-linecap="butt" stroke-linejoin="miter" stroke-miterlimit="4" stroke-opacity="1" stroke-width="4.583"/><text fill="#000" fill-opacity="1" direction="ltr" font-family="Intel Clear,Intel Clear_MSFontService,sans-serif" font-size="55" font-stretch="normal" font-style="normal" font-variant="normal" font-weight="400" text-anchor="start" text-decoration="none" transform="matrix(1 0 0 1 360.556 900)" unicode-bidi="normal" writing-mode="lr-tb">FP32 Convolution with quantized <tspan x="843.906" y="0" fill="#000" fill-opacity="1" direction="ltr" font-family="Intel Clear,Intel Clear_MSFontService,sans-serif" font-size="55" font-stretch="normal" font-style="normal" font-variant="normal" font-weight="400" text-anchor="start" text-decoration="none" unicode-bidi="normal" writing-mode="lr-tb">weights</tspan></text><rect width="1222" height="237" x="1974.5" y="852.5" fill="#E9E9E9" fill-opacity="1" stroke="#AEAEAE" stroke-linecap="butt" stroke-linejoin="miter" stroke-miterlimit="4" stroke-opacity="1" stroke-width="4.583"/><text fill="#000" fill-opacity="1" direction="ltr" font-family="Intel Clear,Intel Clear_MSFontService,sans-serif" font-size="55" font-stretch="normal" font-style="normal" font-variant="normal" font-weight="400" text-anchor="start" text-decoration="none" transform="matrix(1 0 0 1 2713.52 923)" unicode-bidi="normal" writing-mode="lr-tb">Quantized weights</text><rect width="2973" height="637" x="342.5" y="145.5" fill="#E9E9E9" fill-opacity="1" stroke="#E9E9E9" stroke-linecap="butt" stroke-linejoin="miter" stroke-miterlimit="4" stroke-opacity="1" stroke-width="4.583"/><text fill="#000" fill-opacity="1" direction="ltr" font-family="Intel Clear,Intel Clear_MSFontService,sans-serif" font-size="55" font-stretch="normal" font-style="normal" font-variant="normal" font-weight="400" text-anchor="start" text-decoration="none" transform="matrix(1 0 0 1 360.556 218)" unicode-bidi="normal" writing-mode="lr-tb">Dequantization on activations</text><path fill="gray" fill-opacity="1" fill-rule="nonzero" d="M4.58333-0.00715904 6.66086 1330.06-2.5058 1330.07-4.58333 0.00715904ZM2.07753 1330.07 15.8132 1320.88 2.10617 1348.4-11.6868 1320.92Z" transform="matrix(-1 0 0 1 1608.61 746.5)"/><path fill="#B9D6E5" fill-opacity="1" fill-rule="evenodd" stroke="#0068B5" stroke-linecap="butt" stroke-linejoin="miter" stroke-miterlimit="4" stroke-opacity="1" stroke-width="4.583" d="M1361.5 2118.67C1361.5 2105.87 1371.87 2095.5 1384.67 2095.5L1827.33 2095.5C1840.13 2095.5 1850.5 2105.87 1850.5 2118.67L1850.5 2211.33C1850.5 2224.13 1840.13 2234.5 1827.33 2234.5L1384.67 2234.5C1371.87 2234.5 1361.5 2224.13 1361.5 2211.33Z"/><text fill="#000" fill-opacity="1" direction="ltr" font-family="Intel Clear,Intel Clear_MSFontService,sans-serif" font-size="37" font-stretch="normal" font-style="normal" font-variant="normal" font-weight="400" text-anchor="start" text-decoration="none" transform="matrix(1 0 0 1 1503.62 2154)" unicode-bidi="normal" writing-mode="lr-tb">Convolution<tspan x="-70.767" y="44" fill="#000" fill-opacity="1" direction="ltr" font-family="Intel Clear,Intel Clear_MSFontService,sans-serif" font-size="37" font-stretch="normal" font-style="normal" font-variant="normal" font-weight="400" text-anchor="start" text-decoration="none" unicode-bidi="normal" writing-mode="lr-tb">{f32} {1, 6, 299, 299}</tspan></text><path fill="gray" fill-opacity="1" fill-rule="nonzero" d="M1611.08 2234.5 1611.08 2310.96 1601.92 2310.96 1601.92 2234.5ZM1606.5 2310.96 1620.25 2301.8 1606.5 2329.3 1592.75 2301.8Z"/><path fill="#D7F3A2" fill-opacity="1" fill-rule="evenodd" stroke="#515A3D" stroke-linecap="butt" stroke-linejoin="miter" stroke-miterlimit="4" stroke-opacity="1" stroke-width="4.583" d="M2019.5 929.667C2019.5 916.872 2029.87 906.5 2042.67 906.5L2485.33 906.5C2498.13 906.5 2508.5 916.872 2508.5 929.667L2508.5 1022.33C2508.5 1035.13 2498.13 1045.5 2485.33 1045.5L2042.67 1045.5C2029.87 1045.5 2019.5 1035.13 2019.5 1022.33Z"/><text fill="#000" fill-opacity="1" direction="ltr" font-family="Intel Clear,Intel Clear_MSFontService,sans-serif" font-size="37" font-stretch="normal" font-style="normal" font-variant="normal" font-weight="400" text-anchor="start" text-decoration="none" transform="matrix(1 0 0 1 2188.74 966)" unicode-bidi="normal" writing-mode="lr-tb">Constant<tspan x="-42.098" y="44" fill="#000" fill-opacity="1" direction="ltr" font-family="Intel Clear,Intel Clear_MSFontService,sans-serif" font-size="37" font-stretch="normal" font-style="normal" font-variant="normal" font-weight="400" text-anchor="start" text-decoration="none" unicode-bidi="normal" writing-mode="lr-tb">{i8} {6, 3, 1, 1}</tspan></text><rect width="1222" height="970" x="1974.5" y="1111.5" fill="#E9E9E9" fill-opacity="1" stroke="#AEAEAE" stroke-linecap="butt" stroke-linejoin="miter" stroke-miterlimit="4" stroke-opacity="1" stroke-width="4.583"/><text fill="#000" fill-opacity="1" direction="ltr" font-family="Intel Clear,Intel Clear_MSFontService,sans-serif" font-size="55" font-stretch="normal" font-style="normal" font-variant="normal" font-weight="400" text-anchor="start" text-decoration="none" transform="matrix(1 0 0 1 2511.29 1185)" unicode-bidi="normal" writing-mode="lr-tb">Dequantization on weights</text><path fill="gray" fill-opacity="1" fill-rule="nonzero" d="M0.70772-4.52836 640.522 95.4656 639.106 104.522-0.70772 4.52836ZM639.815 99.9942 632.882 84.9937 657.929 102.825 628.635 112.164Z" transform="matrix(-1 0 0 1 2264.43 1992.5)"/><path fill="gray" fill-opacity="1" fill-rule="nonzero" d="M0.479782-4.55815 524.514 50.6007 523.555 59.717-0.479782 4.55815ZM524.035 55.1589 516.358 40.5249 542.268 57.078 513.479 67.8738Z" transform="matrix(-1 0 0 1 2806.77 1795.5)"/><path fill="#B9D6E5" fill-opacity="1" fill-rule="evenodd" stroke="#515A3D" stroke-linecap="butt" stroke-linejoin="miter" stroke-miterlimit="4" stroke-opacity="1" stroke-width="4.583" d="M2019.5 1876.67C2019.5 1863.87 2029.87 1853.5 2042.67 1853.5L2485.33 1853.5C2498.13 1853.5 2508.5 1863.87 2508.5 1876.67L2508.5 1969.33C2508.5 1982.13 2498.13 1992.5 2485.33 1992.5L2042.67 1992.5C2029.87 1992.5 2019.5 1982.13 2019.5 1969.33Z"/><text fill="#000" fill-opacity="1" direction="ltr" font-family="Intel Clear,Intel Clear_MSFontService,sans-serif" font-size="37" font-stretch="normal" font-style="normal" font-variant="normal" font-weight="400" text-anchor="start" text-decoration="none" transform="matrix(1 0 0 1 2195.93 1912)" unicode-bidi="normal" writing-mode="lr-tb">Multiply<tspan x="-61.6" y="44" fill="#000" fill-opacity="1" direction="ltr" font-family="Intel Clear,Intel Clear_MSFontService,sans-serif" font-size="37" font-stretch="normal" font-style="normal" font-variant="normal" font-weight="400" text-anchor="start" text-decoration="none" unicode-bidi="normal" writing-mode="lr-tb">{f32} {6, 3, 1, 1}</tspan></text><path fill="url(#fill1)" fill-rule="evenodd" stroke="#0068B5" stroke-linecap="butt" stroke-linejoin="miter" stroke-miterlimit="4" stroke-opacity="1" stroke-width="4.583" d="M2019.5 1450.67C2019.5 1437.87 2029.87 1427.5 2042.67 1427.5L2485.33 1427.5C2498.13 1427.5 2508.5 1437.87 2508.5 1450.67L2508.5 1543.33C2508.5 1556.13 2498.13 1566.5 2485.33 1566.5L2042.67 1566.5C2029.87 1566.5 2019.5 1556.13 2019.5 1543.33Z"/><text fill="#000" fill-opacity="1" direction="ltr" font-family="Intel Clear,Intel Clear_MSFontService,sans-serif" font-size="37" font-stretch="normal" font-style="normal" font-variant="normal" font-weight="400" text-anchor="start" text-decoration="none" transform="matrix(1 0 0 1 2197.92 1487)" unicode-bidi="normal" writing-mode="lr-tb">Convert<tspan x="-63.594" y="44" fill="#000" fill-opacity="1" direction="ltr" font-family="Intel Clear,Intel Clear_MSFontService,sans-serif" font-size="37" font-stretch="normal" font-style="normal" font-variant="normal" font-weight="400" text-anchor="start" text-decoration="none" unicode-bidi="normal" writing-mode="lr-tb">{f32} {6, 3, 1, 1}</tspan></text><path fill="gray" fill-opacity="1" fill-rule="nonzero" d="M2269.08 1566.5 2269.08 1616.44 2259.92 1616.44 2259.92 1566.5ZM2264.5 1616.44 2278.25 1607.28 2264.5 1634.78 2250.75 1607.28Z"/><path fill="#B9D6E5" fill-opacity="1" fill-rule="evenodd" stroke="#0068B5" stroke-linecap="butt" stroke-linejoin="miter" stroke-miterlimit="4" stroke-opacity="1" stroke-width="4.583" d="M2562.5 1679.67C2562.5 1666.87 2572.87 1656.5 2585.67 1656.5L3027.33 1656.5C3040.13 1656.5 3050.5 1666.87 3050.5 1679.67L3050.5 1772.33C3050.5 1785.13 3040.13 1795.5 3027.33 1795.5L2585.67 1795.5C2572.87 1795.5 2562.5 1785.13 2562.5 1772.33Z"/><text fill="#000" fill-opacity="1" direction="ltr" font-family="Intel Clear,Intel Clear_MSFontService,sans-serif" font-size="37" font-stretch="normal" font-style="normal" font-variant="normal" font-weight="400" text-anchor="start" text-decoration="none" transform="matrix(1 0 0 1 2731.02 1716)" unicode-bidi="normal" writing-mode="lr-tb">Constant<tspan x="-54.427" y="44" fill="#000" fill-opacity="1" direction="ltr" font-family="Intel Clear,Intel Clear_MSFontService,sans-serif" font-size="37" font-stretch="normal" font-style="normal" font-variant="normal" font-weight="400" text-anchor="start" text-decoration="none" unicode-bidi="normal" writing-mode="lr-tb">{f32} {6, 1, 1, 1}</tspan></text><path fill="#B9D6E5" fill-opacity="1" fill-rule="evenodd" stroke="#0068B5" stroke-linecap="butt" stroke-linejoin="miter" stroke-miterlimit="4" stroke-opacity="1" stroke-width="4.583" d="M2019.5 1658.67C2019.5 1645.87 2029.87 1635.5 2042.67 1635.5L2485.33 1635.5C2498.13 1635.5 2508.5 1645.87 2508.5 1658.67L2508.5 1751.33C2508.5 1764.13 2498.13 1774.5 2485.33 1774.5L2042.67 1774.5C2029.87 1774.5 2019.5 1764.13 2019.5 1751.33Z"/><text fill="#000" fill-opacity="1" direction="ltr" font-family="Intel Clear,Intel Clear_MSFontService,sans-serif" font-size="37" font-stretch="normal" font-style="normal" font-variant="normal" font-weight="400" text-anchor="start" text-decoration="none" transform="matrix(1 0 0 1 2193.06 1694)" unicode-bidi="normal" writing-mode="lr-tb">Subtract<tspan x="-58.735" y="44" fill="#000" fill-opacity="1" direction="ltr" font-family="Intel Clear,Intel Clear_MSFontService,sans-serif" font-size="37" font-stretch="normal" font-style="normal" font-variant="normal" font-weight="400" text-anchor="start" text-decoration="none" unicode-bidi="normal" writing-mode="lr-tb">{f32} {6, 3, 1, 1}</tspan></text><path fill="gray" fill-opacity="1" fill-rule="nonzero" d="M0.574223-4.54722 516.139 60.5584 514.991 69.6528-0.574223 4.54722ZM515.565 65.1055 508.193 50.3154 533.754 67.4024 504.748 77.5988Z" transform="matrix(-1 0 0 1 2798.25 1567.5)"/><path fill="#D7F3A2" fill-opacity="1" fill-rule="evenodd" stroke="#515A3D" stroke-linecap="butt" stroke-linejoin="miter" stroke-miterlimit="4" stroke-opacity="1" stroke-width="4.583" d="M2553.5 1253.67C2553.5 1240.87 2563.87 1230.5 2576.67 1230.5L3018.33 1230.5C3031.13 1230.5 3041.5 1240.87 3041.5 1253.67L3041.5 1346.33C3041.5 1359.13 3031.13 1369.5 3018.33 1369.5L2576.67 1369.5C2563.87 1369.5 2553.5 1359.13 2553.5 1346.33Z"/><text fill="#000" fill-opacity="1" direction="ltr" font-family="Intel Clear,Intel Clear_MSFontService,sans-serif" font-size="37" font-stretch="normal" font-style="normal" font-variant="normal" font-weight="400" text-anchor="start" text-decoration="none" transform="matrix(1 0 0 1 2722.5 1290)" unicode-bidi="normal" writing-mode="lr-tb">Constant<tspan x="-42.098" y="44" fill="#000" fill-opacity="1" direction="ltr" font-family="Intel Clear,Intel Clear_MSFontService,sans-serif" font-size="37" font-stretch="normal" font-style="normal" font-variant="normal" font-weight="400" text-anchor="start" text-decoration="none" unicode-bidi="normal" writing-mode="lr-tb">{i8} {6, 1, 1, 1}</tspan></text><path fill="url(#fill2)" fill-rule="evenodd" stroke="#0068B5" stroke-linecap="butt" stroke-linejoin="miter" stroke-miterlimit="4" stroke-opacity="1" stroke-width="4.583" d="M2553.5 1451.67C2553.5 1438.87 2563.87 1428.5 2576.67 1428.5L3018.33 1428.5C3031.13 1428.5 3041.5 1438.87 3041.5 1451.67L3041.5 1544.33C3041.5 1557.13 3031.13 1567.5 3018.33 1567.5L2576.67 1567.5C2563.87 1567.5 2553.5 1557.13 2553.5 1544.33Z"/><text fill="#000" fill-opacity="1" direction="ltr" font-family="Intel Clear,Intel Clear_MSFontService,sans-serif" font-size="37" font-stretch="normal" font-style="normal" font-variant="normal" font-weight="400" text-anchor="start" text-decoration="none" transform="matrix(1 0 0 1 2731.67 1488)" unicode-bidi="normal" writing-mode="lr-tb">Convert<tspan x="-63.594" y="44" fill="#000" fill-opacity="1" direction="ltr" font-family="Intel Clear,Intel Clear_MSFontService,sans-serif" font-size="37" font-stretch="normal" font-style="normal" font-variant="normal" font-weight="400" text-anchor="start" text-decoration="none" unicode-bidi="normal" writing-mode="lr-tb">{f32} {6, 1, 1, 1}</tspan></text><path fill="gray" fill-opacity="1" fill-rule="nonzero" d="M2802.08 1369.5 2802.08 1409.7 2792.92 1409.7 2792.92 1369.5ZM2797.5 1409.7 2811.25 1400.53 2797.5 1428.03 2783.75 1400.53Z"/><path fill="gray" fill-opacity="1" fill-rule="nonzero" d="M2269.08 1774.5 2269.08 1834.86 2259.92 1834.86 2259.92 1774.5ZM2264.5 1834.86 2278.25 1825.69 2264.5 1853.19 2250.75 1825.69Z"/><path fill="gray" fill-opacity="1" fill-rule="nonzero" d="M2269.08 1045.5 2269.08 1408.72 2259.92 1408.72 2259.92 1045.5ZM2264.5 1408.72 2278.25 1399.56 2264.5 1427.06 2250.75 1399.56Z"/><path fill="gray" fill-opacity="1" fill-rule="nonzero" d="M0.479782-4.55815 524.514 50.6007 523.555 59.717-0.479782 4.55815ZM524.035 55.1589 516.358 40.5249 542.268 57.078 513.479 67.8738Z" transform="matrix(-1 0 0 1 2150.77 550.5)"/><path fill="#B9D6E5" fill-opacity="1" fill-rule="evenodd" stroke="#515A3D" stroke-linecap="butt" stroke-linejoin="miter" stroke-miterlimit="4" stroke-opacity="1" stroke-width="4.583" d="M1364.5 630.667C1364.5 617.872 1374.87 607.5 1387.67 607.5L1829.33 607.5C1842.13 607.5 1852.5 617.872 1852.5 630.667L1852.5 723.332C1852.5 736.127 1842.13 746.5 1829.33 746.5L1387.67 746.5C1374.87 746.5 1364.5 736.127 1364.5 723.332Z"/><text fill="#000" fill-opacity="1" direction="ltr" font-family="Intel Clear,Intel Clear_MSFontService,sans-serif" font-size="37" font-stretch="normal" font-style="normal" font-variant="normal" font-weight="400" text-anchor="start" text-decoration="none" transform="matrix(1 0 0 1 1540.1 667)" unicode-bidi="normal" writing-mode="lr-tb">Multiply<tspan x="-105.142" y="44" fill="#000" fill-opacity="1" direction="ltr" font-family="Intel Clear,Intel Clear_MSFontService,sans-serif" font-size="37" font-stretch="normal" font-style="normal" font-variant="normal" font-weight="400" text-anchor="start" text-decoration="none" unicode-bidi="normal" writing-mode="lr-tb">{f32} </tspan><tspan x="-12.902" y="44" fill="#000" fill-opacity="1" direction="ltr" font-family="Intel Clear,Intel Clear_MSFontService,sans-serif" font-size="37" font-stretch="normal" font-style="normal" font-variant="normal" font-weight="400" text-anchor="start" text-decoration="none" unicode-bidi="normal" writing-mode="lr-tb">{1, </tspan><tspan x="39.806" y="44" fill="#000" fill-opacity="1" direction="ltr" font-family="Intel Clear,Intel Clear_MSFontService,sans-serif" font-size="37" font-stretch="normal" font-style="normal" font-variant="normal" font-weight="400" text-anchor="start" text-decoration="none" unicode-bidi="normal" writing-mode="lr-tb">3, </tspan><tspan x="78.764" y="44" fill="#000" fill-opacity="1" direction="ltr" font-family="Intel Clear,Intel Clear_MSFontService,sans-serif" font-size="37" font-stretch="normal" font-style="normal" font-variant="normal" font-weight="400" text-anchor="start" text-decoration="none" unicode-bidi="normal" writing-mode="lr-tb">299, 29</tspan>9<tspan x="226.577" y="44" fill="#000" fill-opacity="1" direction="ltr" font-family="Intel Clear,Intel Clear_MSFontService,sans-serif" font-size="37" font-stretch="normal" font-style="normal" font-variant="normal" font-weight="400" text-anchor="start" text-decoration="none" unicode-bidi="normal" writing-mode="lr-tb">}</tspan></text><path fill="url(#fill3)" fill-rule="evenodd" stroke="#0068B5" stroke-linecap="butt" stroke-linejoin="miter" stroke-miterlimit="4" stroke-opacity="1" stroke-width="4.583" d="M1364.5 204.834C1364.5 191.947 1374.95 181.5 1387.83 181.5L1829.17 181.5C1842.05 181.5 1852.5 191.947 1852.5 204.834L1852.5 298.166C1852.5 311.053 1842.05 321.5 1829.17 321.5L1387.83 321.5C1374.95 321.5 1364.5 311.053 1364.5 298.166Z"/><text fill="#000" fill-opacity="1" direction="ltr" font-family="Intel Clear,Intel Clear_MSFontService,sans-serif" font-size="37" font-stretch="normal" font-style="normal" font-variant="normal" font-weight="400" text-anchor="start" text-decoration="none" transform="matrix(1 0 0 1 1542.1 241)" unicode-bidi="normal" writing-mode="lr-tb">Convert<tspan x="-107.136" y="44" fill="#000" fill-opacity="1" direction="ltr" font-family="Intel Clear,Intel Clear_MSFontService,sans-serif" font-size="37" font-stretch="normal" font-style="normal" font-variant="normal" font-weight="400" text-anchor="start" text-decoration="none" unicode-bidi="normal" writing-mode="lr-tb">{f32} </tspan><tspan x="-14.896" y="44" fill="#000" fill-opacity="1" direction="ltr" font-family="Intel Clear,Intel Clear_MSFontService,sans-serif" font-size="37" font-stretch="normal" font-style="normal" font-variant="normal" font-weight="400" text-anchor="start" text-decoration="none" unicode-bidi="normal" writing-mode="lr-tb">{1, </tspan><tspan x="37.813" y="44" fill="#000" fill-opacity="1" direction="ltr" font-family="Intel Clear,Intel Clear_MSFontService,sans-serif" font-size="37" font-stretch="normal" font-style="normal" font-variant="normal" font-weight="400" text-anchor="start" text-decoration="none" unicode-bidi="normal" writing-mode="lr-tb">3, </tspan><tspan x="76.771" y="44" fill="#000" fill-opacity="1" direction="ltr" font-family="Intel Clear,Intel Clear_MSFontService,sans-serif" font-size="37" font-stretch="normal" font-style="normal" font-variant="normal" font-weight="400" text-anchor="start" text-decoration="none" unicode-bidi="normal" writing-mode="lr-tb">299, 29</tspan>9<tspan x="224.583" y="44" fill="#000" fill-opacity="1" direction="ltr" font-family="Intel Clear,Intel Clear_MSFontService,sans-serif" font-size="37" font-stretch="normal" font-style="normal" font-variant="normal" font-weight="400" text-anchor="start" text-decoration="none" unicode-bidi="normal" writing-mode="lr-tb">}</tspan></text><path fill="gray" fill-opacity="1" fill-rule="nonzero" d="M1613.08 321.5 1613.08 371.445 1603.92 371.445 1603.92 321.5ZM1608.5 371.445 1622.25 362.278 1608.5 389.778 1594.75 362.278Z"/><path fill="#B9D6E5" fill-opacity="1" fill-rule="evenodd" stroke="#0068B5" stroke-linecap="butt" stroke-linejoin="miter" stroke-miterlimit="4" stroke-opacity="1" stroke-width="4.583" d="M1906.5 434.667C1906.5 421.872 1916.87 411.5 1929.67 411.5L2371.33 411.5C2384.13 411.5 2394.5 421.872 2394.5 434.667L2394.5 527.333C2394.5 540.128 2384.13 550.5 2371.33 550.5L1929.67 550.5C1916.87 550.5 1906.5 540.128 1906.5 527.333Z"/><text fill="#000" fill-opacity="1" direction="ltr" font-family="Intel Clear,Intel Clear_MSFontService,sans-serif" font-size="37" font-stretch="normal" font-style="normal" font-variant="normal" font-weight="400" text-anchor="start" text-decoration="none" transform="matrix(1 0 0 1 2075.2 470)" unicode-bidi="normal" writing-mode="lr-tb">Constant<tspan x="-54.427" y="44" fill="#000" fill-opacity="1" direction="ltr" font-family="Intel Clear,Intel Clear_MSFontService,sans-serif" font-size="37" font-stretch="normal" font-style="normal" font-variant="normal" font-weight="400" text-anchor="start" text-decoration="none" unicode-bidi="normal" writing-mode="lr-tb">{f32} </tspan><tspan x="37.813" y="44" fill="#000" fill-opacity="1" direction="ltr" font-family="Intel Clear,Intel Clear_MSFontService,sans-serif" font-size="37" font-stretch="normal" font-style="normal" font-variant="normal" font-weight="400" text-anchor="start" text-decoration="none" unicode-bidi="normal" writing-mode="lr-tb">{1, </tspan><tspan x="90.521" y="44" fill="#000" fill-opacity="1" direction="ltr" font-family="Intel Clear,Intel Clear_MSFontService,sans-serif" font-size="37" font-stretch="normal" font-style="normal" font-variant="normal" font-weight="400" text-anchor="start" text-decoration="none" unicode-bidi="normal" writing-mode="lr-tb">1, 1, 1}</tspan></text><path fill="#B9D6E5" fill-opacity="1" fill-rule="evenodd" stroke="#0068B5" stroke-linecap="butt" stroke-linejoin="miter" stroke-miterlimit="4" stroke-opacity="1" stroke-width="4.583" d="M1364.5 412.667C1364.5 399.872 1374.87 389.5 1387.67 389.5L1829.33 389.5C1842.13 389.5 1852.5 399.872 1852.5 412.667L1852.5 505.333C1852.5 518.128 1842.13 528.5 1829.33 528.5L1387.67 528.5C1374.87 528.5 1364.5 518.128 1364.5 505.333Z"/><text fill="#000" fill-opacity="1" direction="ltr" font-family="Intel Clear,Intel Clear_MSFontService,sans-serif" font-size="37" font-stretch="normal" font-style="normal" font-variant="normal" font-weight="400" text-anchor="start" text-decoration="none" transform="matrix(1 0 0 1 1537.24 449)" unicode-bidi="normal" writing-mode="lr-tb">Subtract<tspan x="-102.277" y="44" fill="#000" fill-opacity="1" direction="ltr" font-family="Intel Clear,Intel Clear_MSFontService,sans-serif" font-size="37" font-stretch="normal" font-style="normal" font-variant="normal" font-weight="400" text-anchor="start" text-decoration="none" unicode-bidi="normal" writing-mode="lr-tb">{f32} </tspan><tspan x="-10.037" y="44" fill="#000" fill-opacity="1" direction="ltr" font-family="Intel Clear,Intel Clear_MSFontService,sans-serif" font-size="37" font-stretch="normal" font-style="normal" font-variant="normal" font-weight="400" text-anchor="start" text-decoration="none" unicode-bidi="normal" writing-mode="lr-tb">{1, </tspan><tspan x="42.671" y="44" fill="#000" fill-opacity="1" direction="ltr" font-family="Intel Clear,Intel Clear_MSFontService,sans-serif" font-size="37" font-stretch="normal" font-style="normal" font-variant="normal" font-weight="400" text-anchor="start" text-decoration="none" unicode-bidi="normal" writing-mode="lr-tb">3, </tspan><tspan x="81.629" y="44" fill="#000" fill-opacity="1" direction="ltr" font-family="Intel Clear,Intel Clear_MSFontService,sans-serif" font-size="37" font-stretch="normal" font-style="normal" font-variant="normal" font-weight="400" text-anchor="start" text-decoration="none" unicode-bidi="normal" writing-mode="lr-tb">299, 29</tspan>9<tspan x="229.442" y="44" fill="#000" fill-opacity="1" direction="ltr" font-family="Intel Clear,Intel Clear_MSFontService,sans-serif" font-size="37" font-stretch="normal" font-style="normal" font-variant="normal" font-weight="400" text-anchor="start" text-decoration="none" unicode-bidi="normal" writing-mode="lr-tb">}</tspan></text><path fill="gray" fill-opacity="1" fill-rule="nonzero" d="M0.578574-4.54667 524.661 62.144 523.504 71.2373-0.578574 4.54667ZM524.081 66.6905 516.724 51.8933 542.268 69.0048 513.252 79.1734Z" transform="matrix(-1 0 0 1 2150.77 320.5)"/><path fill="gray" fill-opacity="1" fill-rule="nonzero" d="M1613.08 528.5 1613.08 588.859 1603.92 588.859 1603.92 528.5ZM1608.5 588.859 1622.25 579.692 1608.5 607.192 1594.75 579.692Z"/><path fill="#B9D6E5" fill-opacity="1" fill-rule="evenodd" stroke="#0068B5" stroke-linecap="butt" stroke-linejoin="miter" stroke-miterlimit="4" stroke-opacity="1" stroke-width="4.583" d="M1906.5 204.667C1906.5 191.872 1916.87 181.5 1929.67 181.5L2371.33 181.5C2384.13 181.5 2394.5 191.872 2394.5 204.667L2394.5 297.333C2394.5 310.128 2384.13 320.5 2371.33 320.5L1929.67 320.5C1916.87 320.5 1906.5 310.128 1906.5 297.333Z"/><text fill="#000" fill-opacity="1" direction="ltr" font-family="Intel Clear,Intel Clear_MSFontService,sans-serif" font-size="37" font-stretch="normal" font-style="normal" font-variant="normal" font-weight="400" text-anchor="start" text-decoration="none" transform="matrix(1 0 0 1 2075.2 240)" unicode-bidi="normal" writing-mode="lr-tb">Constant<tspan x="-54.427" y="44" fill="#000" fill-opacity="1" direction="ltr" font-family="Intel Clear,Intel Clear_MSFontService,sans-serif" font-size="37" font-stretch="normal" font-style="normal" font-variant="normal" font-weight="400" text-anchor="start" text-decoration="none" unicode-bidi="normal" writing-mode="lr-tb">{f32} </tspan><tspan x="37.813" y="44" fill="#000" fill-opacity="1" direction="ltr" font-family="Intel Clear,Intel Clear_MSFontService,sans-serif" font-size="37" font-stretch="normal" font-style="normal" font-variant="normal" font-weight="400" text-anchor="start" text-decoration="none" unicode-bidi="normal" writing-mode="lr-tb">{1, </tspan><tspan x="90.521" y="44" fill="#000" fill-opacity="1" direction="ltr" font-family="Intel Clear,Intel Clear_MSFontService,sans-serif" font-size="37" font-stretch="normal" font-style="normal" font-variant="normal" font-weight="400" text-anchor="start" text-decoration="none" unicode-bidi="normal" writing-mode="lr-tb">1</tspan><tspan x="112.292" y="44" fill="#000" fill-opacity="1" direction="ltr" font-family="Intel Clear,Intel Clear_MSFontService,sans-serif" font-size="37" font-stretch="normal" font-style="normal" font-variant="normal" font-weight="400" text-anchor="start" text-decoration="none" unicode-bidi="normal" writing-mode="lr-tb">, </tspan>1, 1}</text><path fill="gray" fill-opacity="1" fill-rule="nonzero" d="M1613.08 104.5 1613.08 164.058 1603.92 164.058 1603.92 104.5ZM1608.5 164.058 1622.25 154.892 1608.5 182.392 1594.75 154.892Z"/></g></svg>